<svg width="20" height="20" viewBox="0 0 20 20" fill="none" xmlns="http://www.w3.org/2000/svg">
<g clip-path="url(#clip0_170_2963)">
<path d="M18.3338 3.55554L16.2782 1.49998C16.1015 1.33153 15.8668 1.23755 15.6227 1.23755C15.3785 1.23755 15.1438 1.33153 14.9671 1.49998L13.1393 3.33332H3.33377C3.03908 3.33332 2.75647 3.45038 2.54809 3.65875C2.33972 3.86713 2.22266 4.14974 2.22266 4.44443V16.6666C2.22266 16.9613 2.33972 17.2439 2.54809 17.4523C2.75647 17.6607 3.03908 17.7778 3.33377 17.7778H15.556C15.8507 17.7778 16.1333 17.6607 16.3417 17.4523C16.55 17.2439 16.6671 16.9613 16.6671 16.6666V6.53332L18.3338 4.86665C18.5075 4.6927 18.605 4.45692 18.605 4.21109C18.605 3.96527 18.5075 3.72949 18.3338 3.55554ZM10.4615 11.1833L8.13377 11.7L8.68932 9.39443L13.9949 4.07776L15.7893 5.8722L10.4615 11.1833ZM16.3893 5.23887L14.5949 3.44443L15.6227 2.41665L17.4171 4.21109L16.3893 5.23887Z" fill="#8B8DFF"/>
</g>
<defs>
<clipPath id="clip0_170_2963">
<rect width="20" height="20" fill="white"/>
</clipPath>
</defs>
</svg>
